<svg width="77" height="77" viewBox="0 0 77 77" fill="none" xmlns="http://www.w3.org/2000/svg">
<path d="M38.5001 3.08008C58.0627 3.08008 73.9201 18.9375 73.9201 38.5001C73.9201 58.0627 58.0627 73.9201 38.5001 73.9201C18.9375 73.9201 3.08008 58.0627 3.08008 38.5001C3.08008 18.9375 18.9375 3.08008 38.5001 3.08008ZM50.7184 52.9376C51.3699 50.9387 54.4221 31.0172 54.7994 27.0918C54.9134 25.9029 54.5376 25.1129 53.8015 24.7602C52.9114 24.3321 51.5932 24.5461 50.0639 25.0975C47.9665 25.8536 21.152 37.2388 19.6027 37.8979C18.1336 38.5216 16.7445 39.2023 16.7445 40.1879C16.7445 40.8809 17.1557 41.2705 18.2891 41.6756C19.4688 42.096 22.4394 42.9969 24.1935 43.4804C25.8829 43.9471 27.8063 43.542 28.8843 42.8721C30.027 42.1622 43.214 33.338 44.1611 32.5649C45.1067 31.7918 45.8613 32.7821 45.0882 33.5567C44.3151 34.3298 35.263 43.1155 34.0695 44.3321C32.6204 45.8089 33.6491 47.3397 34.6208 47.9526C35.7312 48.6518 43.7161 54.0079 44.9188 54.8672C46.1215 55.7265 47.3412 56.1161 48.4577 56.1161C49.5742 56.1161 50.1625 54.6454 50.7184 52.9376Z" fill="#64D370"/>
</svg>
