<svg width="85" height="85" viewBox="0 0 85 85" fill="none" xmlns="http://www.w3.org/2000/svg">
<path d="M42.4999 7.08301C22.9393 7.08301 7.08325 22.9391 7.08325 42.4997C7.08325 62.0603 22.9393 77.9164 42.4999 77.9164C62.0606 77.9164 77.9166 62.0603 77.9166 42.4997C77.9166 22.9391 62.0606 7.08301 42.4999 7.08301ZM62.1739 50.178C63.8031 51.2653 64.2422 53.4611 63.1549 55.0903C62.4749 56.1139 61.3487 56.6664 60.2047 56.6664C59.5318 56.6664 58.8483 56.4716 58.2426 56.0714L47.6176 48.988L47.6141 48.9845C47.1041 49.1049 46.5764 49.197 46.0416 49.282V53.1318C46.0416 55.0903 44.4585 56.6734 42.4999 56.6734C25.6912 56.6734 21.2499 40.4526 21.2499 31.8747C21.2499 29.9161 22.833 28.333 24.7916 28.333C26.7466 28.333 28.3297 29.9126 28.3333 31.8641C28.3368 32.5228 28.5422 46.5655 38.9583 49.1757V31.8924C38.9583 29.9338 40.5414 28.3507 42.4999 28.3507C44.4585 28.3507 46.0416 29.9338 46.0416 31.8924V42.0782C54.2972 40.0772 56.6666 31.4178 56.7764 30.9999C57.2651 29.1157 59.1847 27.9753 61.0795 28.4499C62.9708 28.9351 64.1147 30.8441 63.6437 32.7318C62.7583 36.2734 60.0701 41.7241 55.1047 45.4641L62.1739 50.178Z" fill="#64D370"/>
</svg>
