<svg width="85" height="85" viewBox="0 0 85 85" fill="none" xmlns="http://www.w3.org/2000/svg">
<path d="M45.4167 7C25.856 7 10 22.856 10 42.4167C10 61.9773 25.856 77.8334 45.4167 77.8334C64.9773 77.8334 80.8334 61.9773 80.8334 42.4167C80.8334 22.856 64.9773 7 45.4167 7ZM38.3333 56.5834C30.5098 56.5834 24.1667 50.2402 24.1667 42.4167C24.1667 34.5931 30.5098 28.25 38.3333 28.25C42.0238 28.25 45.3529 29.695 47.8746 32.0077L44.0036 35.6698C42.4665 34.3736 40.5044 33.5625 38.3333 33.5625C33.4423 33.5625 29.4792 37.5256 29.4792 42.4167C29.4792 47.3077 33.4423 51.2708 38.3333 51.2708C42.6152 51.2708 46.1888 48.2286 47.0104 44.1875H38.3333V38.875H52.0006C52.2946 40.0119 52.5 41.1877 52.5 42.4167C52.5 50.2402 46.1569 56.5834 38.3333 56.5834ZM66.6667 42.4167V47.7292H63.125V42.4167H57.8125V38.875H63.125V33.5625H66.6667V38.875H71.9792V42.4167H66.6667Z" fill="#64D370"/>
</svg>
