<svg width="55" height="54" viewBox="0 0 55 54" fill="none" xmlns="http://www.w3.org/2000/svg">
<path d="M51.4964 31.0542C51.0438 30.5122 50.5552 30.0058 50.0367 29.5365C50.888 28.263 51.3868 26.7322 51.3868 25.0859C51.3868 23.7998 51.0741 22.5191 50.4825 21.3821C50.2763 20.9858 49.7894 20.8326 49.3952 21.0398C49.0009 21.2471 48.8485 21.7365 49.0546 22.1328C49.533 23.052 49.7754 24.0455 49.7754 25.0859C49.7754 26.3471 49.4093 27.5237 48.7788 28.5148C48.3871 28.23 47.9829 27.9641 47.5668 27.7189C48.0484 26.9566 48.3286 26.0539 48.3286 25.0858C48.3286 22.3678 46.1288 20.1565 43.4249 20.1565C42.628 20.1565 41.8756 20.3497 41.2099 20.6905V19.1034C41.8999 18.8443 42.6461 18.702 43.4249 18.702C44.6156 18.702 45.7775 19.0365 46.7847 19.6693C47.162 19.9064 47.659 19.7911 47.8949 19.4118C48.1307 19.0325 48.0161 18.5328 47.6387 18.2958C46.3751 17.5018 44.9179 17.0822 43.4248 17.0822C42.656 17.0822 41.9134 17.1946 41.2098 17.4003V11.1266C42.6566 11.1156 43.8303 9.92962 43.8303 8.47272C43.8303 7.00967 42.6466 5.81927 41.1912 5.81841L42.3566 1.78948C42.4799 1.36284 42.3984 0.914394 42.1331 0.559132C41.8678 0.203763 41.462 0 41.0201 0H31.1138C30.6694 0 30.2624 0.205598 29.9971 0.563991C29.7319 0.922385 29.6531 1.37332 29.7808 1.80114L30.9804 5.81841H27.8176C27.3092 5.81841 26.8469 6.0997 26.6111 6.55269C26.3754 7.00557 26.409 7.54775 26.6989 7.9678L27.8109 9.57792C28.4807 10.548 29.5819 11.1271 30.7567 11.1271H31.1184V23.9394C31.1184 24.904 30.4383 25.7246 29.5013 25.8908C26.9241 26.3479 24.5111 27.4934 22.5075 29.1806C22.0198 25.7127 20.9711 22.6374 19.4698 20.3927C19.2583 20.0763 18.9052 19.8874 18.5252 19.8874C18.1453 19.8874 17.7922 20.0763 17.5808 20.3926C15.4534 23.5735 14.2332 28.4209 14.2332 33.6919C14.2332 34.4878 14.2624 35.2763 14.3188 36.0524C13.9212 35.6055 13.5079 35.1654 13.0791 34.7344C12.7998 34.4537 12.5129 34.1761 12.2019 33.8857C11.876 33.5814 11.3662 33.6002 11.0633 33.9279C10.7604 34.2557 10.7792 34.7681 11.1053 35.0725C11.4016 35.3493 11.6746 35.6133 11.9398 35.8799C13.4025 37.3502 14.6777 38.9221 15.7138 40.5043C15.5535 40.6193 15.3982 40.7433 15.2472 40.8745C14.7412 40.6105 14.1992 40.3982 13.6301 40.2446L7.87305 34.4575C7.55841 34.1412 7.04826 34.1412 6.73373 34.4575C6.41909 34.7738 6.41909 35.2866 6.73373 35.6027L11.0782 39.9699C10.3029 40.0064 9.55796 40.1493 8.85993 40.3827C8.62049 40.157 8.3833 39.9263 8.1488 39.6906C4.95386 36.479 2.61367 32.714 1.76794 29.4659C3.79316 30.0002 6.07008 31.1403 8.26342 32.7266C8.62457 32.9879 9.12816 32.9053 9.38791 32.5422C9.64776 32.1792 9.56569 31.673 9.20443 31.4118C6.52426 29.4733 3.81067 28.1932 1.35705 27.7099C0.984618 27.6364 0.602411 27.754 0.333856 28.0241C0.0651937 28.2941 -0.0515739 28.6786 0.0212582 29.0526C0.374569 30.8647 1.18496 32.8826 2.3651 34.888C3.58809 36.9663 5.15065 38.9676 7.00948 40.836C7.10111 40.9281 7.19403 41.0183 7.28652 41.1089C5.20071 42.3643 3.81959 44.5265 3.81959 46.9802C3.81959 50.8508 7.25408 53.9999 11.4757 53.9999C13.3125 53.9999 14.998 53.4016 16.3184 52.4091C17.7312 53.4625 19.3853 53.9957 20.9955 53.9957C22.3826 53.9957 23.7361 53.598 24.8746 52.7977C26.5486 53.5687 28.4084 54 30.3669 54H41.7673C49.0639 54 55 48.0329 55 40.6983C55 37.1841 53.7557 33.759 51.4964 31.0542ZM43.4249 21.7764C45.2403 21.7764 46.7172 23.261 46.7172 25.0859C46.7172 25.7869 46.4986 26.4371 46.1272 26.9726C45.0676 26.494 43.9522 26.1388 42.8034 25.9211C41.8801 25.7461 41.21 24.9274 41.21 23.9742V22.6409C41.7952 22.1044 42.5724 21.7764 43.4249 21.7764ZM31.4092 1.61995H40.7277L39.5133 5.81863H32.6629L31.4092 1.61995ZM29.1347 8.65446L28.2949 7.43836H41.1898C41.7574 7.43836 42.2192 7.90247 42.2192 8.47305C42.2192 9.04362 41.7575 9.50773 41.1898 9.50773H30.7568C30.1099 9.50763 29.5035 9.18875 29.1347 8.65446ZM18.5254 21.9262C20.2125 24.8242 21.2061 29.1498 21.2061 33.692C21.2061 35.6596 21.0232 37.5722 20.6813 39.3442C20.2304 39.2807 19.7784 39.2594 19.3311 39.2789V29.7956C19.3311 29.3483 18.9704 28.9857 18.5254 28.9857C18.0805 28.9857 17.7198 29.3483 17.7198 29.7956V39.5396C17.5216 39.5962 17.3263 39.6619 17.1341 39.7368C16.8411 39.2834 16.5295 38.8315 16.2016 38.3826C15.9679 36.8879 15.8446 35.3085 15.8446 33.692C15.8446 29.1498 16.8383 24.8243 18.5254 21.9262ZM5.43092 46.9803C5.43092 44.0027 8.14257 41.5803 11.4757 41.5803C12.43 41.5803 13.333 41.7794 14.1364 42.1327C12.3321 44.8078 12.6872 48.6263 15.1004 51.2984C14.0898 51.9772 12.8345 52.3802 11.4757 52.3802C8.14257 52.3803 5.43092 49.9578 5.43092 46.9803ZM16.5219 50.4517C14.1651 48.0826 13.9516 44.4422 16.0461 42.3367C16.9826 41.3953 18.2504 40.8863 19.6424 40.8863C19.7418 40.8863 19.8419 40.8889 19.9424 40.8941C21.483 40.9741 22.9663 41.6562 24.119 42.815C26.4758 45.1841 26.6893 48.8245 24.5948 50.93C22.5001 53.0355 18.8787 52.8208 16.5219 50.4517ZM41.7673 52.3803H30.3669C28.8869 52.3803 27.4714 52.0995 26.1685 51.5902C26.4041 51.2999 26.6123 50.9934 26.7911 50.6732C27.9082 51.0791 29.1123 51.3005 30.3669 51.3005H41.7673C47.0855 51.3005 51.5855 47.3025 52.2347 42.0007C52.2891 41.5568 51.9751 41.1526 51.5336 41.098C51.0915 41.0433 50.6899 41.3589 50.6356 41.8028C50.0856 46.294 46.273 49.6808 41.7673 49.6808H30.3669C29.3267 49.6808 28.3284 49.4992 27.3996 49.1685C28.0739 46.6725 27.3428 43.7649 25.2584 41.6697C24.3691 40.7757 23.3321 40.1312 22.243 39.7362C22.5065 38.3985 22.6814 36.9887 22.7632 35.5409C23.1039 34.9218 23.5053 34.3331 23.967 33.7865C25.5714 31.8872 27.7753 30.6002 30.1792 30.1571L42.0791 30.1795C44.4541 30.6471 46.6274 31.942 48.2058 33.8317C49.2813 35.1194 50.0499 36.6664 50.4282 38.3054C50.5288 38.7411 50.9612 39.0123 51.3951 38.9112C51.8286 38.8101 52.0983 38.375 51.9978 37.9393C51.5623 36.0528 50.6777 34.2724 49.4397 32.7901C47.6069 30.5958 45.0734 29.0984 42.3057 28.574C42.257 28.5648 42.2076 28.56 42.158 28.5599L30.1095 28.5372C30.0636 28.5393 30.0147 28.5413 29.968 28.5495C27.1992 29.0406 24.6587 30.5022 22.8017 32.6668C22.7864 32.163 22.7597 31.6641 22.7223 31.1708C24.653 29.2529 27.12 27.9581 29.7813 27.486C31.4899 27.183 32.7298 25.6916 32.7298 23.9396V11.1274H39.5986V23.9741C39.5986 25.7054 40.8208 27.1936 42.5048 27.5128C45.5154 28.0834 48.2706 29.711 50.2624 32.0958C52.2785 34.5094 53.3887 37.5644 53.3887 40.6983C53.3887 47.1398 48.1754 52.3803 41.7673 52.3803Z" fill="black"/>
<path d="M7.30322 45.4326C6.86637 45.4326 6.51221 45.7952 6.51221 46.2425V47.7182C6.51221 48.1654 6.86637 48.528 7.30322 48.528C7.74007 48.528 8.09424 48.1654 8.09424 47.7182V46.2425C8.09424 45.7952 7.74018 45.4326 7.30322 45.4326Z" fill="black"/>
<path d="M17.0985 42.6698L16.0793 43.7133C15.7704 44.0295 15.7704 44.5422 16.0793 44.8585C16.2338 45.0167 16.4363 45.0958 16.6386 45.0958C16.841 45.0958 17.0435 45.0167 17.1979 44.8585L18.2171 43.8151C18.526 43.4988 18.526 42.9861 18.2171 42.6698C17.9083 42.3535 17.4074 42.3535 17.0985 42.6698Z" fill="black"/>
</svg>
