<svg width="50" height="54" viewBox="0 0 50 54" fill="none" xmlns="http://www.w3.org/2000/svg">
<path d="M47.1119 21.441C45.5295 18.785 43.3263 16.4164 40.687 14.5242C42.9042 12.5508 43.7445 10.202 43.7848 10.0879C43.9631 9.57745 43.7152 9.02045 43.2108 8.79385C42.7076 8.56808 42.1077 8.74854 41.8219 9.21037C41.7162 9.37929 40.9587 10.4982 39.2705 10.4982C38.6846 10.4982 37.9857 10.3631 37.1641 10.0067C32.9955 8.19894 28.5827 8.89191 27.7815 9.0394H27.1523C26.2131 6.8501 23.2804 0.64845 19.9847 0.0588957C18.798 -0.154514 17.7802 0.217923 17.1947 1.08062C16.4814 2.13243 16.4173 4.15405 17.6762 5.9841C18.1424 6.66099 18.7249 7.62216 19.3903 8.80951C17.5272 8.71805 14.7728 8.854 12.1162 10.0067C8.92705 11.3886 7.6002 9.43944 7.45966 9.21243C7.17943 8.75471 6.5901 8.57138 6.08696 8.78644C5.58466 9.00067 5.32609 9.54573 5.48488 10.0562C5.52395 10.1818 6.36209 12.8144 8.59248 15.061C6.13281 16.9648 4.08713 19.302 2.63162 21.8819C0.8857 24.9796 0 28.3188 0 31.8066C0 37.7533 2.61294 43.339 7.35861 47.5334C12.0763 51.704 18.3411 54 25 54C31.6589 54 37.9237 51.704 42.6414 47.5334C47.3871 43.339 50 37.7533 50 31.8066C50 28.1952 49.0009 24.6113 47.1119 21.441ZM13.0031 11.9328C15.9957 10.6342 19.2434 10.862 20.5511 11.0309L20.6683 11.2913V11.2934L21.8729 13.9725C22.1119 14.5032 22.7458 14.7479 23.2944 14.5209C23.8434 14.2951 24.102 13.6825 23.874 13.1477C23.5751 12.4465 23.052 11.2905 22.6664 10.4447C22.5229 10.1303 22.4087 9.88026 22.3467 9.7476C22.3404 9.73277 22.3327 9.71794 22.3251 9.70435C22.3111 9.66727 22.2945 9.63142 22.2762 9.59641C21.1574 7.48703 20.2174 5.87739 19.4837 4.81241C18.7912 3.80716 18.7424 2.63753 19.0107 2.24078C19.0489 2.18516 19.1389 2.05209 19.5903 2.13243C21.0751 2.39898 23.6838 6.14024 25.4042 10.4731C25.5664 10.8802 25.9685 11.1488 26.4186 11.1488H27.8889C27.9654 11.1488 28.0422 11.1405 28.1165 11.1257C28.1382 11.1216 29.2468 10.9012 30.8347 10.9012C32.3803 10.9012 34.3814 11.11 36.2772 11.9328C37.5705 12.4935 38.6825 12.6542 39.6085 12.6002C39.2196 12.9895 38.7708 13.3702 38.2553 13.7117C36.0012 15.2064 33.1759 15.5018 29.8578 14.5905C29.4523 14.4785 29.0162 14.6053 28.7402 14.9143C28.4642 15.2233 28.398 15.66 28.5683 16.0341C28.7347 16.395 29.0336 16.6818 29.4879 17.1176C30.3218 17.9157 31.6958 19.234 32.4032 21.4229C31.3107 20.9734 30.2751 20.9125 29.5317 20.868C29.1771 20.847 28.8107 20.8247 28.6532 20.7699L28.5466 20.7341C26.0967 19.8944 25.7316 19.1331 25.7316 18.7532C25.7316 18.1711 25.2348 17.6986 24.6348 17.6986C24.0349 17.6986 23.5479 18.1711 23.5479 18.7532C23.5479 19.6592 20.7965 21.3059 19.6726 21.6948C19.5436 21.7406 19.4077 21.7826 19.2663 21.8279C18.6371 22.0261 17.8804 22.2634 16.9956 22.813C17.7531 20.6084 19.088 19.0878 19.913 18.1501C20.3074 17.6998 20.5685 17.4036 20.7108 17.0954C20.8815 16.7209 20.8152 16.2842 20.5392 15.9752C20.3295 15.7412 20.0284 15.6114 19.7172 15.6114C19.6183 15.6114 19.5185 15.6242 19.4209 15.6514C16.0772 16.5701 13.235 16.1252 10.9719 14.3281H10.9706C10.2879 13.7847 9.72486 13.1741 9.26503 12.5718C10.2849 12.7057 11.5273 12.573 13.0031 11.9328C15.9957 10.6342 11.5273 12.573 13.0031 11.9328ZM25 51.8906C12.4142 51.8906 2.17391 42.8813 2.17391 31.8066C2.17391 25.8444 5.11634 20.2912 10.276 16.4593C11.8037 17.4839 13.5933 18.0722 15.4437 18.1942C15.9914 18.23 16.5417 18.2271 17.089 18.1901C15.8632 19.805 14.437 22.2572 14.2676 25.6112C14.2446 26.0627 14.5206 26.4772 14.9533 26.6436C15.0828 26.6935 15.2187 26.7174 15.3533 26.7174C15.5295 26.7174 15.7023 26.6766 15.8577 26.5975C15.8925 26.5794 15.9252 26.5592 15.9575 26.5394C16.039 26.4854 16.1141 26.4212 16.1804 26.3462C17.7925 24.5099 18.9326 24.1503 19.938 23.8339C20.0989 23.7832 20.2509 23.7346 20.4055 23.6818C20.4424 23.6682 23.0893 22.6346 24.6336 21.0208C25.6675 21.984 27.1641 22.4974 27.8227 22.7232L27.9208 22.7569C28.3696 22.9118 28.8685 22.9415 29.3979 22.9732C30.5673 23.0429 31.8937 23.122 33.0991 24.4951C33.4001 24.8391 33.8935 24.9582 34.3262 24.7926C34.7588 24.6257 35.0348 24.2112 35.0119 23.7601C34.8578 20.7003 33.6477 18.595 32.5013 17.1889C34.2196 17.3059 35.9676 17.0979 37.5662 16.4576C38.0078 16.2809 38.4388 16.077 38.8502 15.8413C41.4924 17.6207 43.6893 19.9101 45.2306 22.4966C46.9281 25.3463 47.8261 28.5651 47.8261 31.8062C47.8261 42.8813 37.5858 51.8906 25 51.8906Z" fill="black"/>
<path d="M25.0001 49.7712C13.852 49.7712 4.78271 41.7119 4.78271 31.8057C4.78271 31.2231 5.2693 30.751 5.86967 30.751C6.47004 30.751 6.95663 31.2231 6.95663 31.8057C6.95663 40.5489 15.0511 47.6618 25.0001 47.6618C25.6005 47.6618 26.0871 48.134 26.0871 48.7165C26.0871 49.2991 25.6005 49.7712 25.0001 49.7712Z" fill="black"/>
<path d="M29.4927 49.3076C28.8923 49.3076 28.4053 48.8355 28.4053 48.2529C28.4053 47.6704 28.8914 47.1982 29.4914 47.1982H29.4927C30.093 47.1982 30.5796 47.6704 30.5796 48.2529C30.5796 48.8355 30.093 49.3076 29.4927 49.3076Z" fill="black"/>
</svg>
