<svg width="248" height="232" viewBox="0 0 248 232" fill="none" xmlns="http://www.w3.org/2000/svg">
<path d="M91.859 204.433H44.3457V153.933" stroke="#64D370" stroke-width="6" stroke-miterlimit="10" stroke-linecap="round"/>
<path d="M95.81 209.261C95.81 209.261 85.8832 198.736 82.1246 185.797C77.0167 168.32 74.6073 153.836 60.5364 139.642" stroke="#64D370" stroke-width="6" stroke-miterlimit="10" stroke-linecap="round"/>
<path d="M136.384 201.246C150.552 216.502 153.636 221.041 158.84 220.075C164.719 218.916 165.393 212.447 165.393 206.943" stroke="#64D370" stroke-width="6" stroke-miterlimit="10" stroke-linecap="round"/>
<path d="M117.11 206.366C131.277 221.623 134.361 226.161 139.565 225.195C145.444 224.037 146.119 217.567 146.119 212.063" stroke="#64D370" stroke-width="6" stroke-miterlimit="10" stroke-linecap="round"/>
<path d="M95.8103 209.262C109.978 224.518 113.062 229.056 118.266 228.091C124.145 226.932 124.819 220.463 124.819 214.959" stroke="#64D370" stroke-width="6" stroke-miterlimit="10" stroke-linecap="round"/>
<path d="M186.885 204.434H245V3.49414H57.8379C50.417 3.49414 44.3453 9.57738 44.3453 17.0124C44.3453 20.5851 45.7909 24.0613 48.2967 26.5718L106.315 84.7005C108.821 87.2111 108.821 91.17 106.315 93.6806L56.8742 143.215C54.3684 145.726 50.417 145.726 47.9112 143.215L3 98.2189" stroke="#64D370" stroke-width="6" stroke-miterlimit="10" stroke-linecap="round"/>
<path d="M102.171 97.9277L116.82 112.605C139.565 135.393 152.576 135.489 170.309 137.227C170.309 137.227 183.609 139.255 191.801 148.718C198.836 156.925 188.813 168.706 179.754 162.912C178.886 162.333 178.019 161.753 177.152 160.981C173.007 157.505 167.418 156.153 162.213 157.891C155.563 160.112 153.636 168.513 158.551 173.437L160.671 175.561L184.38 199.315C187.753 202.695 187.753 208.295 184.38 211.675C181.007 215.054 175.417 215.054 172.044 211.675L153.443 193.039" stroke="#64D370" stroke-width="6" stroke-miterlimit="10" stroke-linecap="round"/>
<path d="M219.688 70.5545C219.688 50.8695 204.49 31.2568 176.844 31.2568C149.198 31.2568 134 50.8695 134 70.5545" stroke="#64D370" stroke-width="6" stroke-miterlimit="10" stroke-linecap="round"/>
<path d="M125.894 79.5986H227.721" stroke="#64D370" stroke-width="6" stroke-miterlimit="10" stroke-linecap="round"/>
<path d="M134 79.5986C134 86.9081 139.863 94.4348 147.172 94.4348H176.844H206.517C213.826 94.4348 219.688 86.9081 219.688 79.5986" stroke="#64D370" stroke-width="6" stroke-miterlimit="10" stroke-linecap="round"/>
<path d="M176.844 31.3295V21.0527" stroke="#64D370" stroke-width="6" stroke-miterlimit="10" stroke-linecap="round"/>
</svg>
