<svg width="50" height="52" viewBox="0 0 50 52" fill="none" xmlns="http://www.w3.org/2000/svg">
<path d="M48.68 39.8921C48.4646 39.6683 48.2277 39.4669 47.9758 39.2936C47.6378 39.0612 47.1826 39.1579 46.9591 39.5094C46.7356 39.8609 46.8286 40.3344 47.1666 40.5668C48.0122 41.1482 48.5326 42.1487 48.5326 43.2065C48.5326 44.051 48.2165 44.8448 47.6423 45.4419C47.0386 46.0699 46.2044 46.4077 45.3487 46.3643C45.1433 46.355 44.9414 46.4352 44.7953 46.5869C44.6492 46.7388 44.5716 46.9478 44.5812 47.1625C44.6215 48.0503 44.2982 48.9198 43.6943 49.5478C42.4959 50.7939 40.5806 50.7798 39.3957 49.5478C38.8215 48.9507 38.5054 48.1569 38.5054 47.3125C38.5054 46.468 38.8215 45.6742 39.3957 45.0771C39.7989 44.6578 40.425 44.194 39.8492 43.5952C39.8479 43.5939 36.9496 40.5797 36.9496 40.5797L39.0191 38.4274C39.0191 38.4274 41.914 41.438 41.9186 41.443C42.2286 41.7653 42.7741 41.7195 43.031 41.3522C43.1259 41.2164 43.2311 41.0883 43.3435 40.9713C43.6924 40.6084 44.1058 40.3466 44.5723 40.193C44.9586 40.0658 45.1727 39.637 45.0504 39.2352C44.9281 38.8333 44.5156 38.611 44.1294 38.738C43.4901 38.9485 42.897 39.3114 42.4059 39.7912L39.8131 37.0946C39.8131 37.0946 39.132 35.3134 39.0183 34.4749C38.7737 32.6694 38.7497 30.8731 38.7679 29.0607C38.7812 27.7256 38.7941 26.3876 38.6705 25.0571C38.0433 18.31 34.7542 12.3896 32.1054 8.61117C29.6564 5.11772 26.5558 2.04089 26.5029 1.98584C24.562 -0.0328157 21.4415 -0.532402 17.7159 0.578591C14.1407 1.6449 10.3916 4.08351 7.15903 7.44533C3.92651 10.8072 1.58168 14.7062 0.556389 18.4244C-0.511971 22.299 -0.031502 25.5444 1.90932 27.5629C1.95737 27.6129 4.89546 30.8234 8.27984 33.3896C11.2576 35.6473 14.5217 37.5471 18.0102 38.803C19.0302 39.1702 20.0695 39.4808 21.1235 39.7237C22.8214 40.1151 24.5498 40.3194 26.2945 40.3247C28.5837 40.3317 30.8683 40.2448 33.1489 40.579C33.9552 40.6971 35.5891 41.3867 35.6286 41.3961L38.2608 44.102C37.471 44.9745 37.0377 46.1088 37.0377 47.3126C37.0377 48.5645 37.5065 49.7416 38.3578 50.6271C39.2092 51.5124 40.341 52 41.5448 52C42.7487 52 43.8806 51.5124 44.7319 50.6271C45.4513 49.8789 45.902 48.8999 46.0206 47.8614C47.0191 47.7381 47.9605 47.2692 48.6799 46.5212C49.5312 45.6358 50 44.4587 50 43.2066C50.0001 41.9546 49.5312 40.7774 48.68 39.8921ZM1.96704 18.8452C2.92485 15.3717 5.13725 11.7064 8.19673 8.52464C11.2561 5.34279 14.7804 3.04179 18.1204 2.04576C19.2866 1.69801 20.3749 1.52566 21.3621 1.52566C23.0753 1.52566 24.4839 2.04454 25.4651 3.06494C27.0118 4.67339 27.3598 7.38622 26.4452 10.7035C25.4875 14.177 23.2751 17.8423 20.2156 21.024C17.1562 24.2059 13.6319 26.5069 10.2919 27.5028C7.102 28.4542 4.49389 28.0922 2.94721 26.4835C1.40043 24.8752 1.05239 22.1623 1.96704 18.8452ZM33.3535 39.0676C32.8718 38.997 32.3905 38.942 31.9091 38.8998C30.5342 38.7792 29.1584 38.7626 27.767 38.7833C24.9864 38.8245 22.4902 38.608 19.8257 37.8036C15.9033 36.6194 12.4587 34.6648 9.17329 32.1781C7.92974 31.2369 6.84175 30.308 5.93823 29.4823C6.29634 29.526 6.66606 29.5487 7.04751 29.5487C8.17407 29.5487 9.39868 29.357 10.6964 28.97C14.2715 27.9037 18.0208 25.4651 21.2533 22.1033C24.4857 18.7415 26.8305 14.8423 27.8558 11.1242C28.3539 9.31794 28.515 7.64866 28.3488 6.17641C29.1427 7.11597 30.0355 8.24697 30.9405 9.54026C33.4726 13.1584 36.6156 18.8129 37.2098 25.204C37.5027 28.3576 37.1375 31.533 37.565 34.6881C37.6861 35.5812 37.9582 36.3727 38.2342 37.0853L35.6588 39.7637C34.9736 39.4765 34.2127 39.1936 33.3535 39.0676Z" fill="black"/>
<path d="M11.1295 25.7446C13.8664 24.7882 16.7861 22.7926 19.3507 20.1254C21.9154 17.4581 23.8341 14.4218 24.7538 11.5753C25.7315 8.54949 25.4752 6.05664 24.0324 4.55595C21.1475 1.5561 14.572 3.6946 9.06183 9.42475C8.21358 10.3069 7.42686 11.2403 6.72305 12.199C6.47725 12.5341 6.53907 13.013 6.86114 13.2687C7.1835 13.5243 7.64376 13.46 7.88966 13.1251C8.55382 12.2201 9.29737 11.3383 10.0996 10.5041C14.8635 5.54954 20.769 3.31993 22.9948 5.63515C24.008 6.68897 24.1423 8.67685 23.3629 11.0892C22.5141 13.7165 20.7206 16.5423 18.3131 19.046C15.9057 21.5498 13.1886 23.415 10.6623 24.2978C8.34298 25.1082 6.43135 24.969 5.41797 23.9149C4.04014 22.4819 4.30235 19.4416 6.10225 15.9802C6.29503 15.6095 6.16231 15.1465 5.80587 14.9461C5.44952 14.7454 5.0042 14.8835 4.81153 15.2543C2.6584 19.3947 2.49727 23.0359 4.38038 24.9942C5.24727 25.8958 6.45831 26.3519 7.91837 26.3518C8.888 26.3519 9.96817 26.1506 11.1295 25.7446Z" fill="black"/>
<path d="M16.2804 14.8847C17.3953 14.8847 18.7677 14.1476 19.9434 12.8138C21.6777 10.8463 22.1313 8.54822 20.9987 7.46831C20.4008 6.89823 19.5076 6.79759 18.4838 7.18474C17.6209 7.51116 16.728 8.16462 15.9696 9.02495C14.2352 10.9924 13.7815 13.2905 14.9142 14.3706C15.2791 14.7183 15.7507 14.8847 16.2804 14.8847ZM17.0514 10.0562C17.6445 9.38337 18.3494 8.85951 18.9853 8.61891C19.6251 8.37678 20.2269 8.42888 20.1428 9.2752C20.0495 10.2129 19.456 11.1081 18.8617 11.7824C17.6289 13.1807 16.2665 13.589 15.906 13.2455C15.5456 12.9019 15.8186 11.4546 17.0514 10.0562Z" fill="black"/>
</svg>
