<svg width="241" height="224" viewBox="0 0 241 224" fill="none" xmlns="http://www.w3.org/2000/svg">
<path d="M88.8787 198.46H42.4243V149.085" stroke="#64D370" stroke-width="3" stroke-miterlimit="10" stroke-linecap="round"/>
<path d="M92.7413 203.181C92.7413 203.181 83.0359 192.891 79.361 180.24C74.3669 163.152 72.0112 148.991 58.2539 135.113" stroke="#64D370" stroke-width="3" stroke-miterlimit="10" stroke-linecap="round"/>
<path d="M132.411 195.345C146.263 210.261 149.278 214.698 154.366 213.754C160.114 212.621 160.774 206.296 160.774 200.915" stroke="#64D370" stroke-width="3" stroke-miterlimit="10" stroke-linecap="round"/>
<path d="M113.566 200.351C127.418 215.267 130.433 219.704 135.522 218.76C141.269 217.627 141.929 211.302 141.929 205.921" stroke="#64D370" stroke-width="3" stroke-miterlimit="10" stroke-linecap="round"/>
<path d="M92.7417 203.182C106.593 218.098 109.609 222.535 114.697 221.591C120.445 220.458 121.104 214.133 121.104 208.752" stroke="#64D370" stroke-width="3" stroke-miterlimit="10" stroke-linecap="round"/>
<path d="M181.787 198.461H238.606V2H55.6157C48.3601 2 42.4238 7.94766 42.4238 15.217C42.4238 18.7101 43.8372 22.1087 46.2871 24.5633L103.012 81.3965C105.462 83.8511 105.462 87.7218 103.012 90.1764L54.6734 138.607C52.2235 141.062 48.3601 141.062 45.9102 138.607L2 94.6135" stroke="#64D370" stroke-width="3" stroke-miterlimit="10" stroke-linecap="round"/>
<path d="M98.9609 94.3291L113.284 108.679C135.521 130.959 148.242 131.054 165.58 132.753C165.58 132.753 178.584 134.735 186.593 143.987C193.472 152.012 183.672 163.53 174.814 157.865C173.966 157.299 173.118 156.732 172.27 155.977C168.218 152.578 162.753 151.257 157.665 152.956C151.163 155.127 149.279 163.341 154.084 168.156L156.157 170.233L179.337 193.457C182.635 196.761 182.635 202.237 179.337 205.541C176.039 208.845 170.574 208.845 167.276 205.541L149.09 187.32" stroke="#64D370" stroke-width="3" stroke-miterlimit="10" stroke-linecap="round"/>
<path d="M213.859 67.5634C213.859 48.3171 199 29.1416 171.97 29.1416C144.94 29.1416 130.081 48.3171 130.081 67.5634" stroke="#64D370" stroke-width="3" stroke-miterlimit="10" stroke-linecap="round"/>
<path d="M122.155 76.4062H221.712" stroke="#64D370" stroke-width="3" stroke-miterlimit="10" stroke-linecap="round"/>
<path d="M130.081 76.4062C130.081 83.5529 135.812 90.9117 142.959 90.9117H171.97H200.981C208.127 90.9117 213.859 83.5529 213.859 76.4062" stroke="#64D370" stroke-width="3" stroke-miterlimit="10" stroke-linecap="round"/>
<path d="M171.969 29.2127V19.165" stroke="#64D370" stroke-width="3" stroke-miterlimit="10" stroke-linecap="round"/>
</svg>
