<svg width="384" height="274" viewBox="0 0 384 274" fill="none" xmlns="http://www.w3.org/2000/svg">
<path d="M63.8172 272.616L60.6453 272.501C60.865 267.435 61.2972 262.289 61.9346 257.196C64.1176 239.806 68.6961 222.741 75.5455 206.482C76.6589 203.84 77.8237 201.301 79.8382 199.195C84.5266 194.299 92.0866 193.527 97.3683 193.371C98.4232 193.337 99.4854 193.324 100.54 193.317C105.287 193.249 110.188 193.188 114.393 191.475C116.818 190.493 118.949 189.01 121.206 187.439C122.312 186.674 123.403 185.902 124.546 185.197C136.091 177.999 151.629 176.997 164.148 182.631C168.639 184.656 172.653 187.432 176.543 190.127L177.246 190.615C179.664 192.281 182.059 193.771 184.513 193.439C186.286 193.209 186.674 192.484 186.806 192.24C187.209 191.495 187.751 189.112 184.11 183.085C180.711 177.457 175.737 172.609 169.708 169.067C164.251 165.857 157.987 163.886 150.559 163.04C135.388 161.327 126.312 154.46 123.579 142.616C120.949 131.205 127.498 118.738 132.663 110.348C134.611 107.179 136.897 103.84 139.849 99.831L140.538 98.8694C142.274 96.4045 144.669 93.0388 149.643 94.6234C153.035 95.7137 156.727 96.0726 160.266 95.6663C160.844 95.5986 161.496 95.5309 162.207 95.6799C164.163 96.1268 164.976 97.9146 165.408 98.8762C166.903 102.194 169.239 105.147 171.115 107.341C173.276 109.881 175.722 112.752 178.506 114.885C180.931 116.747 183.129 117.6 184.953 117.397C186.044 117.289 186.755 116.91 187.121 116.246C187.692 115.217 187.451 113.503 186.52 111.987L184.894 109.366C181.854 104.504 178.704 99.4789 177.29 93.7634C176.133 89.0976 174.038 86.5649 169.554 84.4114C166.045 82.7252 162.126 81.6282 158.339 80.5582C157.306 80.267 156.273 79.9759 155.24 79.6711L152.383 78.8043C150.171 78.1271 147.966 77.4432 145.71 76.9082L144.801 76.6847C142.655 76.1633 140.428 75.6148 138.567 76.1362C136.633 76.6779 135.088 78.398 133.601 80.0571C133.205 80.4973 132.817 80.9307 132.428 81.3302C130.363 83.4972 128.333 85.7116 126.312 87.9193C122.766 91.7928 119.111 95.795 115.206 99.5128C111.785 102.763 107.976 105.973 103.221 109.63L101.2 107.375C105.859 103.793 109.587 100.644 112.935 97.4676C116.759 93.8311 120.385 89.8628 123.887 86.0299C125.923 83.802 127.96 81.574 130.055 79.3867C130.421 79.0007 130.787 78.5944 131.154 78.1813C132.861 76.2784 134.795 74.1249 137.652 73.3259C140.362 72.5674 143.153 73.2446 145.607 73.8473L146.486 74.064C148.816 74.6125 151.101 75.3168 153.38 76.0211L156.193 76.8743C157.203 77.1723 158.222 77.4635 159.247 77.7479C163.174 78.8517 167.232 80.0029 170.997 81.8043C176.294 84.3505 179.004 87.6213 180.36 93.1065C181.671 98.3954 184.564 103.014 187.619 107.896L189.26 110.544C190.733 112.955 190.989 115.65 189.927 117.58C189.326 118.67 188.029 120.032 185.282 120.316C182.528 120.567 179.561 119.524 176.455 117.14C173.408 114.81 170.851 111.804 168.595 109.156C166.602 106.813 164.097 103.65 162.456 100.007C162.287 99.6346 161.826 98.6189 161.43 98.5308C161.291 98.497 160.969 98.5376 160.683 98.5715C156.595 99.0455 152.427 98.6324 148.574 97.3999C146.157 96.6212 145.175 97.6302 143.168 100.474L142.442 101.49C139.542 105.431 137.3 108.702 135.395 111.804C130.494 119.774 124.253 131.578 126.663 142.006C129.073 152.489 137.241 158.584 150.925 160.128C158.837 161.022 165.533 163.141 171.393 166.588C177.862 170.394 183.209 175.602 186.857 181.649C190.073 186.972 190.996 190.974 189.619 193.534C189.048 194.604 187.766 195.965 184.931 196.33C180.938 196.852 177.561 194.509 175.32 192.958L174.616 192.47C170.851 189.863 166.954 187.161 162.742 185.265C151.226 180.078 136.919 181.006 126.304 187.622C125.213 188.306 124.151 189.044 123.103 189.775C120.795 191.38 118.422 193.039 115.66 194.163C110.869 196.107 105.632 196.181 100.577 196.249C99.5293 196.263 98.4891 196.276 97.4562 196.303C89.9988 196.52 85.1566 198.057 82.2044 201.139C80.5342 202.879 79.4939 205.161 78.4903 207.545C71.7362 223.567 67.2236 240.388 65.0699 257.528C64.4619 262.546 64.037 267.625 63.8172 272.616Z" fill="#64D370"/>
<path d="M3.15511 258.428L0.0563965 257.819L10.0265 214.763C11.6967 207.551 13.4182 200.088 16.2972 192.984C19.1395 185.962 22.9781 179.488 27.8569 171.924C33.9371 162.497 40.4935 153.098 46.8301 144.003C62.2944 121.819 78.2861 98.8755 88.5272 73.9279C91.4794 66.7294 94.3364 59.3074 97.0981 52.1224C103.449 35.6058 110.013 18.527 118.496 2.26096C119.448 0.425781 120.782 0.0262391 121.727 0.0126953C121.741 0.0126953 121.756 0.0126953 121.771 0.0126953C124.349 0.0126953 126.122 2.82303 126.605 3.68983C129.301 8.51819 128.737 14.3149 128.239 19.4277L128.137 20.5044C127.433 27.9535 125.008 38.0707 122.225 45.1135L119.243 44.1045C121.939 37.2784 124.291 27.4659 124.972 20.2539L125.082 19.1636C125.536 14.4504 126.056 9.10734 123.792 5.03744C123.045 3.6966 122.093 2.96524 121.778 2.9517C121.785 2.96524 121.602 3.08036 121.36 3.54085C112.951 19.6715 106.416 36.6757 100.094 53.1179C97.3252 60.3164 94.4682 67.7587 91.5014 74.9843C81.143 100.223 65.0634 123.295 49.5039 145.608C43.182 154.676 36.6476 164.062 30.5893 173.441C25.7984 180.87 22.0404 187.208 19.2787 194.034C16.4803 200.935 14.7808 208.289 13.1398 215.393L3.15511 258.428Z" fill="#64D370"/>
<path d="M82.1686 113.917L80.0295 111.75C91.809 101.816 95.1202 92.4435 95.1568 92.3555C101.691 76.0623 103.904 72.0263 107.259 65.9112C108.145 64.286 109.127 62.505 110.291 60.2973L111.903 57.2297C117.038 47.4172 122.342 37.2729 131.001 29.79C132.341 28.6252 133.733 27.5011 135.11 26.3837C136.466 25.2799 137.828 24.1829 139.147 23.0384C142.202 20.3974 145.095 17.4787 147.894 14.6548L158.039 4.41571C158.904 3.53537 160.091 2.33674 161.827 1.95075C162.904 1.70696 163.797 1.69341 164.603 1.88303C170.456 3.29835 168.793 11.9122 168.141 14.5194C166.867 19.6254 164.676 24.6975 161.629 29.6139C155.82 38.9659 147.395 46.9838 139.953 53.7625C132.81 60.2703 130.18 71.0917 128.071 79.7868C127.514 82.0554 126.913 84.7371 126.503 87.0328L123.375 86.552C123.792 84.2021 124.415 81.473 124.979 79.1435C127.177 70.076 129.924 58.7872 137.726 51.6767C145.022 45.0335 153.278 37.1849 158.882 28.158C161.775 23.4921 163.856 18.6841 165.057 13.8693C165.775 10.9844 166.435 5.36378 163.805 4.72045C163.614 4.67305 163.248 4.65273 162.581 4.80171C161.849 4.96424 161.153 5.62111 160.384 6.39988L150.304 16.578C147.403 19.5103 144.458 22.4763 141.315 25.1919C139.975 26.3566 138.583 27.4808 137.206 28.5981C135.85 29.7019 134.488 30.799 133.169 31.9434C124.943 39.0539 119.771 48.9477 114.767 58.5163L113.148 61.5975C111.976 63.8187 110.995 65.6065 110.094 67.2453C106.673 73.4822 104.607 77.2474 98.1603 93.3103C98.0431 93.6421 94.6294 103.4 82.1686 113.917Z" fill="#64D370"/>
<path d="M70.6085 114.1L67.4805 113.646C69.1653 103.644 69.0408 93.344 68.9236 83.3894L68.8796 79.1772C68.843 76.5362 68.8137 73.8004 69.3192 71.0984C69.5536 69.8185 69.9199 68.5522 70.2788 67.2926L70.7477 65.6199C72.1981 60.1956 72.5717 54.4531 72.9307 48.8934C73.1358 45.7241 73.3556 42.4465 73.7585 39.2231C73.8537 38.4782 74.0002 37.3473 74.7548 36.3924C76.4836 34.2458 79.9046 34.5437 82.2268 36.0674C85.4574 38.1802 87.4133 41.8709 88.1972 47.3561C89.2227 54.5547 88.6147 62.6945 88.0213 70.5702C87.6551 75.4188 87.3181 79.9018 87.3254 84.0733H84.1534C84.1461 79.8003 84.4904 75.2699 84.8494 70.4754C85.4354 62.6403 86.0361 54.6562 85.0472 47.7421C84.3879 43.1169 82.8641 40.0764 80.3881 38.4646C79.3772 37.7942 77.8095 37.5166 77.2967 38.1464C77.0623 38.4376 76.9744 38.9861 76.9011 39.5685C76.5056 42.7038 76.2931 45.9408 76.0953 49.0694C75.7291 54.7578 75.3408 60.6426 73.8317 66.3174L73.3482 68.0443C73.0113 69.2226 72.667 70.4009 72.4472 71.5927C71.993 74.0374 72.0223 76.5159 72.0516 79.1366L72.0956 83.3555C72.2128 93.4388 72.3373 103.861 70.6085 114.1Z" fill="#64D370"/>
<path d="M123.301 132.391C121.535 137.199 117.858 142.549 112.539 144.397C110.605 145.068 111.448 147.959 113.397 147.282C119.88 145.034 124.253 139.081 126.414 133.19C127.088 131.361 123.967 130.576 123.301 132.391Z" fill="#64D370"/>
<path d="M60.1912 216.653C63.8906 204.876 77.8971 198.809 89.911 197.217C91.9621 196.946 91.0904 194.062 89.0539 194.332C75.8679 196.08 61.0849 203.088 57.0778 215.86C56.4918 217.709 59.6125 218.494 60.1912 216.653Z" fill="#64D370"/>
<path d="M95.105 92.3941C92.4751 99.9176 86.0432 106.52 79.9557 111.775C78.432 113.089 80.7249 115.202 82.2413 113.888C88.7464 108.274 95.4199 101.204 98.2256 93.1864C98.8703 91.3512 95.7423 90.5657 95.105 92.3941Z" fill="#64D370"/>
<path d="M112.935 97.4483C109.184 100.99 105.192 104.288 101.075 107.457C99.4781 108.69 101.771 110.796 103.361 109.57C107.478 106.394 111.463 103.096 115.221 99.5611C116.686 98.1864 114.4 96.0668 112.935 97.4483Z" fill="#64D370"/>
<path d="M63.8544 272.555C64.0888 267.476 64.521 262.411 65.1364 257.359C65.3708 255.449 62.1329 255.463 61.8985 257.359C61.2831 262.411 60.8509 267.476 60.6165 272.555C60.5286 274.485 63.7665 274.478 63.8544 272.555Z" fill="#64D370"/>
<path d="M3.68185 242.001C2.46581 247.243 1.25709 252.478 0.0410499 257.719C-0.391158 259.595 2.7222 260.401 3.16174 258.511C4.37778 253.27 5.5865 248.035 6.80254 242.794C7.23475 240.925 4.12139 240.119 3.68185 242.001Z" fill="#64D370"/>
<path d="M320.183 272.616C319.97 267.625 319.545 262.553 318.915 257.535C316.762 240.395 312.249 223.574 305.495 207.552C304.491 205.175 303.451 202.893 301.781 201.145C298.836 198.071 293.987 196.534 286.536 196.31C285.504 196.277 284.456 196.263 283.416 196.256C278.354 196.188 273.123 196.121 268.325 194.17C265.563 193.046 263.19 191.387 260.882 189.782C259.827 189.044 258.773 188.306 257.681 187.629C247.066 181.013 232.759 180.085 221.244 185.272C217.039 187.168 213.149 189.864 209.398 192.457L208.666 192.958C206.417 194.509 203.032 196.859 199.055 196.337C196.22 195.972 194.938 194.617 194.366 193.541C192.989 190.974 193.919 186.972 197.128 181.656C200.776 175.609 206.124 170.401 212.592 166.595C218.453 163.142 225.156 161.036 233.06 160.135C246.744 158.591 254.905 152.489 257.322 142.013C259.732 131.578 253.491 119.781 248.59 111.811C246.685 108.709 244.444 105.438 241.543 101.49L240.818 100.481C238.818 97.6304 237.836 96.6281 235.411 97.4069C231.565 98.6326 227.397 99.0457 223.361 98.5852C223.024 98.5446 222.701 98.4972 222.54 98.5446C222.159 98.6259 221.698 99.6416 221.522 100.021C219.881 103.671 217.383 106.82 215.391 109.163C213.127 111.817 210.556 114.824 207.53 117.147C204.41 119.537 201.45 120.58 198.696 120.323C195.949 120.039 194.659 118.677 194.051 117.587C192.989 115.657 193.245 112.962 194.718 110.551L196.359 107.903C199.414 103.014 202.307 98.3956 203.618 93.1135C204.974 87.6351 207.691 84.3575 212.98 81.8112C216.746 80.0099 220.797 78.8655 224.723 77.7549C225.749 77.4705 226.774 77.1793 227.793 76.8745L230.606 76.0213C232.891 75.317 235.17 74.6195 237.499 74.0642L238.378 73.8475C240.832 73.2448 243.609 72.5676 246.334 73.3193C249.198 74.1184 251.125 76.2786 252.839 78.1815C253.205 78.5946 253.571 79.0009 253.938 79.3869C256.04 81.5878 258.091 83.8293 260.142 86.064C263.637 89.8901 267.256 93.8449 271.065 97.4678C274.391 100.624 278.119 103.772 282.808 107.375L280.779 109.63C276.01 105.96 272.2 102.743 268.801 99.513C264.904 95.8087 261.256 91.8201 257.725 87.9534C255.696 85.7254 253.659 83.5042 251.572 81.3237C251.191 80.9241 250.802 80.4907 250.399 80.0506C248.912 78.3847 247.367 76.6714 245.425 76.1229C243.557 75.615 241.345 76.1567 239.199 76.6782L238.29 76.9016C236.034 77.4366 233.822 78.1138 231.617 78.7978L228.76 79.6646C227.727 79.9693 226.694 80.2605 225.654 80.5517C221.874 81.6216 217.954 82.7254 214.453 84.4049C209.97 86.5583 207.867 89.091 206.717 93.7569C205.303 99.4723 202.153 104.497 199.113 109.359L197.487 111.98C196.564 113.497 196.315 115.21 196.886 116.24C197.252 116.903 197.963 117.282 199.055 117.391C200.864 117.594 203.076 116.741 205.508 114.878C208.277 112.752 210.629 109.996 212.9 107.334C214.768 105.14 217.105 102.201 218.599 98.8764C219.039 97.908 219.852 96.1202 221.793 95.6801C222.526 95.5243 223.178 95.5988 223.698 95.6598C227.302 96.0728 230.979 95.7072 234.371 94.6237C239.345 93.0255 241.741 96.4047 243.477 98.8696L244.165 99.8245C247.125 103.833 249.403 107.179 251.352 110.348C256.509 118.732 263.065 131.205 260.435 142.616C257.703 154.46 248.627 161.327 233.455 163.04C226.027 163.887 219.764 165.85 214.306 169.067C208.285 172.609 203.303 177.457 199.904 183.085C196.278 189.105 196.813 191.489 197.216 192.24C197.34 192.484 197.729 193.209 199.509 193.439C201.955 193.764 204.358 192.288 206.776 190.615L207.501 190.114C211.376 187.432 215.383 184.656 219.866 182.638C232.386 176.997 247.923 178.006 259.468 185.204C260.611 185.916 261.71 186.681 262.809 187.446C265.065 189.017 267.197 190.507 269.622 191.482C273.827 193.195 278.515 193.256 283.474 193.324C284.537 193.338 285.599 193.351 286.654 193.378C291.928 193.534 299.488 194.306 304.176 199.202C306.191 201.308 307.348 203.847 308.469 206.489C315.319 222.748 319.897 239.813 322.08 257.203C322.717 262.289 323.157 267.442 323.369 272.508L320.183 272.616Z" fill="#64D370"/>
<path d="M380.845 258.429L370.875 215.373C369.227 208.263 367.527 200.915 364.729 194.015C361.967 187.195 358.209 180.85 353.418 173.421C347.367 164.035 340.825 154.656 334.503 145.589C318.951 123.275 302.864 100.204 292.506 74.9648C289.539 67.746 286.682 60.2969 283.913 53.0984C277.591 36.6562 271.057 19.6588 262.647 3.52815C262.383 3.02703 262.193 2.93223 262.193 2.93223C261.929 2.95254 260.97 3.67714 260.222 5.02474C257.951 9.09465 258.471 14.4377 258.926 19.1577L259.036 20.2412C259.71 27.46 262.068 37.2725 264.764 44.0918L261.783 45.1008C259.006 38.0648 256.574 27.9408 255.871 20.4917L255.768 19.415C255.27 14.3022 254.713 8.51227 257.409 3.67714C257.885 2.81033 259.658 0 262.237 0C262.251 0 262.273 0 262.281 0C263.226 0.0135438 264.559 0.413085 265.511 2.25504C273.994 18.5211 280.558 35.5998 286.909 52.1165C289.671 59.3014 292.528 66.7302 295.48 73.922C305.714 98.8696 321.713 121.813 337.177 143.997C343.514 153.092 350.07 162.492 356.151 171.918C361.029 179.482 364.861 185.956 367.71 192.979C370.589 200.089 372.311 207.545 373.981 214.757L383.944 257.813L380.845 258.429Z" fill="#64D370"/>
<path d="M301.832 113.917C289.371 103.4 285.957 93.642 285.825 93.2289C279.401 77.2405 277.342 73.4753 273.921 67.2384C273.028 65.6064 272.046 63.8051 270.867 61.5839L269.233 58.4824C264.23 48.9205 259.058 39.0335 250.838 31.923C249.52 30.7853 248.157 29.6883 246.802 28.5845C245.418 27.4671 244.033 26.343 242.692 25.185C239.55 22.4695 236.612 19.5034 233.77 16.6389L223.624 6.39977C222.855 5.62778 222.159 4.9709 221.426 4.80161C220.76 4.65262 220.401 4.67294 220.21 4.72034C217.925 5.27564 217.954 9.85343 218.95 13.8692C220.152 18.684 222.232 23.4988 225.126 28.1579C230.73 37.1916 238.986 45.0334 246.282 51.6766C254.084 58.7939 256.831 70.0826 259.028 79.1502C259.593 81.4729 260.208 84.202 260.633 86.5586L257.505 87.0394C257.095 84.7438 256.486 82.0689 255.937 79.7935C253.827 71.0984 251.197 60.2769 244.055 53.7691C236.612 46.9905 228.188 38.9726 222.379 29.6206C219.331 24.711 217.141 19.632 215.866 14.526C215.222 11.9189 213.566 3.29825 219.412 1.88969C220.196 1.69331 221.111 1.71362 222.181 1.95741C223.917 2.35018 225.104 3.54881 225.968 4.42238L236.048 14.6005C238.912 17.4921 241.806 20.4108 244.861 23.0518C246.179 24.1895 247.542 25.2866 248.897 26.3904C250.282 27.5078 251.666 28.6319 253.007 29.7899C261.658 37.2728 266.969 47.4036 272.097 57.2093L273.724 60.304C274.896 62.5117 275.87 64.2994 276.756 65.9247C280.104 72.0329 282.316 76.0757 288.829 92.2876C288.887 92.4502 292.199 101.822 303.978 111.757L301.832 113.917Z" fill="#64D370"/>
<path d="M313.399 114.1C311.67 103.861 311.795 93.4387 311.919 83.3621L311.963 79.1433C312 76.5158 312.022 74.0373 311.567 71.5994C311.348 70.4075 311.003 69.2224 310.666 68.0509L310.183 66.3241C308.667 60.6492 308.286 54.7645 307.919 49.0761C307.714 45.9475 307.509 42.7105 307.114 39.5751C307.04 38.9927 306.952 38.4442 306.711 38.153C306.212 37.5164 304.63 37.8076 303.619 38.4713C301.143 40.0898 299.619 43.1303 298.96 47.7555C297.971 54.6629 298.572 62.6537 299.151 70.3804C299.517 75.2833 299.861 79.8137 299.861 84.0867H296.689C296.689 79.9153 296.352 75.4323 295.993 70.6919C295.393 62.7079 294.785 54.5748 295.81 47.3695C296.594 41.8843 298.55 38.1936 301.781 36.074C304.095 34.5571 307.531 34.2592 309.253 36.3991C310.014 37.3472 310.154 38.4781 310.249 39.2297C310.659 42.4532 310.872 45.7308 311.077 48.9C311.436 54.4597 311.809 60.2023 313.26 65.6266L313.728 67.2992C314.087 68.5588 314.454 69.8251 314.688 71.105C315.194 73.807 315.164 76.5429 315.128 79.1839L315.084 83.396C314.966 93.3575 314.842 103.651 316.527 113.653L313.399 114.1Z" fill="#64D370"/>
<path d="M257.585 133.183C259.747 139.075 264.127 145.027 270.603 147.275C272.552 147.952 273.394 145.061 271.46 144.39C266.142 142.549 262.464 137.192 260.699 132.384C260.04 130.576 256.912 131.355 257.585 133.183Z" fill="#64D370"/>
<path d="M326.93 215.852C322.923 203.081 308.132 196.072 294.954 194.325C292.917 194.054 292.038 196.939 294.096 197.209C306.11 198.801 320.117 204.868 323.816 216.645C324.388 218.493 327.508 217.708 326.93 215.852Z" fill="#64D370"/>
<path d="M285.774 93.1864C288.58 101.204 295.254 108.274 301.759 113.888C303.282 115.202 305.568 113.089 304.044 111.775C297.949 106.513 291.525 99.9176 288.895 92.3941C288.258 90.5657 285.137 91.3512 285.774 93.1864Z" fill="#64D370"/>
<path d="M268.779 99.5603C272.53 103.102 276.522 106.4 280.639 109.569C282.229 110.795 284.529 108.689 282.925 107.456C278.808 104.28 274.823 100.982 271.065 97.4475C269.607 96.0728 267.314 98.1856 268.779 99.5603Z" fill="#64D370"/>
<path d="M323.383 272.555C323.149 267.476 322.717 262.411 322.101 257.359C321.867 255.47 318.636 255.45 318.863 257.359C319.479 262.411 319.911 267.476 320.145 272.555C320.24 274.479 323.471 274.485 323.383 272.555Z" fill="#64D370"/>
<path d="M377.197 242.8C378.413 248.041 379.621 253.276 380.838 258.517C381.27 260.4 384.39 259.601 383.958 257.725C382.742 252.483 381.533 247.249 380.317 242.007C379.885 240.125 376.765 240.917 377.197 242.8Z" fill="#64D370"/>
</svg>
