<svg width="52" height="48" viewBox="0 0 52 48" fill="none" xmlns="http://www.w3.org/2000/svg">
<rect width="52" height="48" rx="24" fill="white"/>
<path fill-rule="evenodd" clip-rule="evenodd" d="M44 35V36.6534L43.9839 36.8189L43.9571 36.9832L43.9195 37.1464L43.8712 37.3083L43.8121 37.4691L43.7423 37.6288L43.6618 37.7872L43.5706 37.9443L43.4686 38.1003L43.3559 38.2552L43.2324 38.4089L43.0982 38.5614L42.9533 38.7126L42.7976 38.8628L42.6312 39.0117L42.4553 39.1589L42.2714 39.3037L42.0792 39.4461L41.879 39.5861L41.6706 39.7238L41.454 39.8591L41.2294 39.992L40.9965 40.1226L40.7555 40.2508L40.5063 40.3766L40.2492 40.5001L39.9837 40.6211L39.7101 40.7398L39.4284 40.8562L39.1386 40.9701L38.8406 41.0817L38.6887 41.1365L38.5351 41.1907L38.3798 41.2442L38.2228 41.2968L38.064 41.3489L37.9035 41.4001L37.7414 41.4507L37.5774 41.5006L37.4119 41.5496L37.2448 41.5981L37.0758 41.6458L36.9051 41.6928L36.7326 41.739L36.5584 41.7847L36.3825 41.8295L36.205 41.8736L36.0256 41.9171L35.8447 41.9597L35.662 42.0018L35.4776 42.043L35.2915 42.0836L35.1036 42.1234L34.914 42.1626L34.7228 42.2009L34.5298 42.2386L34.3351 42.2755L34.1386 42.3118L33.9405 42.3474L33.7407 42.3822L33.5392 42.4164L33.336 42.4498L33.131 42.4825L32.9246 42.5143L32.7172 42.5452L32.5087 42.575L32.2992 42.6038L32.0886 42.6316L31.8769 42.6584L31.6643 42.6842L31.4504 42.7089L31.2355 42.7326L31.0196 42.7555L30.8026 42.7771L30.5845 42.7979L30.3654 42.8176L30.1452 42.8363L29.9239 42.854L29.7017 42.8706L29.4784 42.8863L29.254 42.901L29.0284 42.9146L28.8019 42.9272L28.5742 42.9389L28.3454 42.9495L28.1157 42.9591L27.8849 42.9677L27.653 42.9752L27.4201 42.9818L27.186 42.9874L26.9509 42.9919L26.7147 42.9955L26.4775 42.9979L26.2392 42.9995L25.9999 43L25.7606 42.9995L25.5224 42.9979L25.2851 42.9955L25.049 42.9919L24.8138 42.9874L24.5799 42.9818L24.3468 42.9752L24.115 42.9677L23.8842 42.9591L23.6544 42.9495L23.4256 42.9389L23.198 42.9272L22.9715 42.9146L22.746 42.901L22.5214 42.8863L22.2981 42.8706L22.0759 42.854L21.8548 42.8363L21.6346 42.8176L21.4154 42.7979L21.1973 42.7771L20.9804 42.7555L20.7645 42.7326L20.5496 42.7089L20.3357 42.6842L20.1231 42.6584L19.9113 42.6316L19.7008 42.6038L19.4913 42.575L19.2828 42.5452L19.0754 42.5143L18.869 42.4825L18.6639 42.4498L18.4607 42.4164L18.2591 42.3822L18.0593 42.3474L17.8612 42.3118L17.6649 42.2755L17.4701 42.2386L17.2772 42.2009L17.0858 42.1626L16.8962 42.1234L16.7084 42.0836L16.5222 42.043L16.3378 42.0018L16.1551 41.9597L15.9742 41.9171L15.795 41.8736L15.6173 41.8295L15.4414 41.7847L15.2674 41.739L15.0949 41.6928L14.9242 41.6458L14.7552 41.5981L14.5881 41.5496L14.4224 41.5006L14.2586 41.4507L14.0964 41.4001L13.936 41.3489L13.7772 41.2968L13.6202 41.2442L13.4649 41.1907L13.3113 41.1365L13.1594 41.0817L12.8614 40.9701L12.5716 40.8562L12.2899 40.7398L12.0163 40.6211L11.7508 40.5001L11.4937 40.3766L11.2445 40.2508L11.0035 40.1226L10.7706 39.992L10.546 39.8591L10.3294 39.7238L10.1209 39.5861L9.92078 39.4461L9.72858 39.3037L9.54469 39.1589L9.36877 39.0117L9.20237 38.8628L9.0467 38.7126L8.90177 38.5614L8.76758 38.4089L8.64412 38.2552L8.5314 38.1003L8.42942 37.9443L8.33816 37.7872L8.25765 37.6288L8.18786 37.4691L8.12882 37.3083L8.08051 37.1464L8.04294 36.9832L8.0161 36.8189L8 36.6534V35L8.0161 35.1655L8.04294 35.3299L8.08051 35.493L8.12882 35.655L8.18786 35.8158L8.25765 35.9754L8.33816 36.1338L8.42942 36.291L8.5314 36.4471L8.64412 36.602L8.76758 36.7556L8.90177 36.9081L9.0467 37.0594L9.20237 37.2095L9.36877 37.3584L9.54469 37.5056L9.72858 37.6504L9.92078 37.7928L10.1209 37.9327L10.3294 38.0704L10.546 38.2057L10.7706 38.3386L11.0035 38.4692L11.2445 38.5974L11.4937 38.7232L11.7508 38.8467L12.0163 38.9677L12.2899 39.0864L12.5716 39.2028L12.8614 39.3167L13.1594 39.4283L13.3113 39.4832L13.4649 39.5373L13.6202 39.5908L13.7772 39.6434L13.936 39.6955L14.0964 39.7467L14.2586 39.7973L14.4224 39.8472L14.5881 39.8963L14.7552 39.9447L14.9242 39.9924L15.0949 40.0394L15.2674 40.0857L15.4414 40.1313L15.6173 40.1761L15.795 40.2202L15.9742 40.2637L16.1551 40.3063L16.3378 40.3484L16.5222 40.3896L16.7084 40.4302L16.8962 40.47L17.0858 40.5092L17.2772 40.5476L17.4701 40.5853L17.6649 40.6223L17.8612 40.6585L18.0593 40.6941L18.2591 40.7289L18.4607 40.7631L18.6639 40.7965L18.869 40.8292L19.0754 40.861L19.2828 40.8919L19.4913 40.9217L19.7008 40.9506L19.9113 40.9783L20.1231 41.0051L20.3357 41.0309L20.5496 41.0556L20.7645 41.0793L20.9804 41.1022L21.1973 41.1239L21.4154 41.1446L21.6346 41.1643L21.8548 41.183L22.0759 41.2007L22.2981 41.2173L22.5214 41.233L22.746 41.2477L22.9715 41.2613L23.198 41.2739L23.4256 41.2856L23.6544 41.2962L23.8842 41.3058L24.115 41.3144L24.3468 41.3219L24.5799 41.3285L24.8138 41.3341L25.049 41.3387L25.2851 41.3422L25.5224 41.3446L25.7606 41.3462L25.9999 41.3467L26.2392 41.3462L26.4775 41.3446L26.7147 41.3422L26.9509 41.3387L27.186 41.3341L27.4201 41.3285L27.653 41.3219L27.8849 41.3144L28.1157 41.3058L28.3454 41.2962L28.5742 41.2856L28.8019 41.2739L29.0284 41.2613L29.254 41.2477L29.4784 41.233L29.7017 41.2173L29.9239 41.2007L30.1452 41.183L30.3654 41.1643L30.5845 41.1446L30.8026 41.1239L31.0196 41.1022L31.2355 41.0793L31.4504 41.0556L31.6643 41.0309L31.8769 41.0051L32.0886 40.9783L32.2992 40.9506L32.5087 40.9217L32.7172 40.8919L32.9246 40.861L33.131 40.8292L33.336 40.7965L33.5392 40.7631L33.7407 40.7289L33.9405 40.6941L34.1386 40.6585L34.3351 40.6223L34.5298 40.5853L34.7228 40.5476L34.914 40.5092L35.1036 40.47L35.2915 40.4302L35.4776 40.3896L35.662 40.3484L35.8447 40.3063L36.0256 40.2637L36.205 40.2202L36.3825 40.1761L36.5584 40.1313L36.7326 40.0857L36.9051 40.0394L37.0758 39.9924L37.2448 39.9447L37.4119 39.8963L37.5774 39.8472L37.7414 39.7973L37.9035 39.7467L38.064 39.6955L38.2228 39.6434L38.3798 39.5908L38.5351 39.5373L38.6887 39.4832L38.8406 39.4283L39.1386 39.3167L39.4284 39.2028L39.7101 39.0864L39.9837 38.9677L40.2492 38.8467L40.5063 38.7232L40.7555 38.5974L40.9965 38.4692L41.2294 38.3386L41.454 38.2057L41.6706 38.0704L41.879 37.9327L42.0792 37.7928L42.2714 37.6504L42.4553 37.5056L42.6312 37.3584L42.7976 37.2095L42.9533 37.0594L43.0982 36.9081L43.2324 36.7556L43.3559 36.602L43.4686 36.4471L43.5706 36.291L43.6618 36.1338L43.7423 35.9754L43.8121 35.8158L43.8712 35.655L43.9195 35.493L43.9571 35.3299L43.9839 35.1655L44 35Z" fill="#64D370"/>
<path fill-rule="evenodd" clip-rule="evenodd" d="M8.04028 32.8524C8.04028 31.843 8.49813 30.8908 9.41401 29.9958C10.0732 29.3515 11.5245 28.0258 12.5435 27.5C13.4386 27.9177 13.9829 29.1628 15 29.5L8.04132 32.9301L8.04028 32.8524ZM17.5761 30.1573C18.8221 30.4516 20.1153 30.6751 21.4554 30.8278L10.4907 36.598C10.0901 36.3155 9.73131 36.0192 9.41401 35.7092C9.12303 35.4249 8.87826 35.1347 8.67989 34.8389L17.5761 30.1573ZM25.2621 31.0694C25.4925 31.073 25.7239 31.0749 25.9568 31.0749C27.7072 31.0749 29.3881 30.9705 30.9997 30.7619L15.5833 38.8749C14.7296 38.629 13.9363 38.3543 13.2035 38.0511C12.9766 37.9572 12.7566 37.861 12.5435 37.7626L25.2621 31.0694ZM40.1019 28.2168C40.9994 28.6757 41.759 29.18 42.3804 29.7299L22.6729 40.1011C21.3647 40.0044 20.111 39.8493 18.9114 39.636C18.7847 39.6134 18.6588 39.5903 18.5342 39.5669L40.1019 28.2168ZM43.6577 31.3026C43.9127 31.8034 44.0403 32.3199 44.0403 32.8524C44.0403 33.2102 43.9828 33.5607 43.8677 33.9041L32.8808 39.686C30.9635 40.0098 28.9092 40.1867 26.7187 40.2168L43.6577 31.3026Z" fill="#64D370"/>
<path d="M26.0398 5C28.5901 5 30.96 5.27237 33.1482 5.81738C35.3362 6.3624 37.2339 7.10011 38.8396 8.03027C40.4451 8.96055 41.7048 10.0502 42.6179 11.2998C43.5308 12.5492 43.987 13.879 43.9871 15.2881C43.9862 15.3639 43.9867 15.4372 43.9871 15.5127C43.9945 17.4821 43.5309 19.3405 42.6179 21.0869C41.7048 22.8333 40.4453 24.3563 38.8396 25.6562C37.2339 26.9562 35.3362 27.9864 33.1482 28.748C30.96 29.5097 28.5901 29.8906 26.0398 29.8906C23.4897 29.8906 21.1205 29.5097 18.9324 28.748C16.7441 27.9864 14.8467 26.9562 13.241 25.6562C11.6354 24.3564 10.3767 22.8332 9.46362 21.0869C8.55049 19.3405 8.09352 17.4823 8.09351 15.5127C8.09385 15.437 8.09437 15.3639 8.09351 15.2881C8.09358 13.8789 8.55055 12.5493 9.46362 11.2998C10.3767 10.0503 11.6356 8.96047 13.241 8.03027C14.8467 7.10012 16.744 6.3624 18.9324 5.81738C21.1205 5.2724 23.4897 5.00003 26.0398 5ZM26.0398 17.0938C23.12 17.0938 20.4072 17.4052 17.9021 18.0293C16.7603 18.3136 15.6878 18.6446 14.6843 19.0205C15.0126 19.2262 15.3647 19.4224 15.74 19.6094C17.0323 20.2532 18.5593 20.7633 20.3201 21.1406C22.0811 21.5174 23.9876 21.706 26.0398 21.7061C28.0922 21.7061 29.9996 21.5174 31.7605 21.1406C33.5214 20.7633 35.0484 20.2532 36.3406 19.6094C36.716 19.4223 37.0679 19.2261 37.3962 19.0205C36.3928 18.6446 35.3203 18.3136 34.1785 18.0293C31.6732 17.4052 28.9596 17.0938 26.0398 17.0938ZM26.0398 7.46973C23.9877 7.46975 22.0811 7.65823 20.3201 8.03516C18.5593 8.41231 17.0323 8.92253 15.74 9.56641C14.4479 10.2098 13.434 10.9644 12.699 11.8291C11.9645 12.6934 11.5974 13.613 11.5974 14.5879C11.5974 15.563 11.9643 16.4833 12.699 17.3477C12.962 17.6571 13.261 17.9522 13.5955 18.2334C14.9007 17.6711 16.3361 17.1947 17.9021 16.8047C20.4072 16.1807 23.12 15.8692 26.0398 15.8691C28.9596 15.8691 31.6732 16.1807 34.1785 16.8047C35.7441 17.1947 37.1799 17.6711 38.4851 18.2334C38.8197 17.9522 39.1184 17.6571 39.3816 17.3477C40.1161 16.4832 40.4832 15.5631 40.4832 14.5879C40.4831 13.613 40.116 12.6934 39.3816 11.8291C38.6466 10.9644 37.6329 10.2098 36.3406 9.56641C35.0484 8.92253 33.5214 8.41231 31.7605 8.03516C29.9996 7.65819 28.0921 7.46973 26.0398 7.46973Z" fill="#64D370"/>
</svg>
