<svg width="140" height="43" viewBox="0 0 140 43" fill="none" xmlns="http://www.w3.org/2000/svg">
<path fill-rule="evenodd" clip-rule="evenodd" d="M57.9813 29.8838V32.4955L57.9653 32.757L57.9385 33.0165L57.9011 33.2743L57.8529 33.5301L57.7941 33.784L57.7245 34.0362L57.6443 34.2865L57.5533 34.5346L57.4517 34.7811L57.3393 35.0258L57.2163 35.2685L57.0825 35.5093L56.9381 35.7483L56.7829 35.9855L56.617 36.2207L56.4417 36.4532L56.2584 36.6819L56.0668 36.9068L55.8673 37.128L55.6595 37.3455L55.4436 37.5592L55.2198 37.7691L54.9877 37.9755L54.7474 38.1779L54.4991 38.3766L54.2428 38.5717L53.9782 38.7629L53.7055 38.9504L53.4247 39.1342L53.1358 39.3141L52.8388 39.4905L52.6874 39.5771L52.5344 39.6626L52.3795 39.7471L52.223 39.8303L52.0647 39.9125L51.9048 39.9934L51.7432 40.0733L51.5798 40.1521L51.4148 40.2296L51.2482 40.3061L51.0798 40.3815L50.9096 40.4557L50.7377 40.5288L50.5641 40.6009L50.3888 40.6717L50.2119 40.7414L50.0331 40.81L49.8527 40.8774L49.6706 40.9438L49.4868 41.0089L49.3013 41.073L49.114 41.136L48.9251 41.1978L48.7345 41.2583L48.5421 41.3179L48.3481 41.3763L48.1522 41.4335L47.9548 41.4898L47.7556 41.5448L47.5547 41.5988L47.3523 41.6515L47.1479 41.7032L46.9422 41.7534L46.7355 41.8022L46.5277 41.8493L46.3188 41.8948L46.109 41.9387L45.8979 41.981L45.686 42.0218L45.4728 42.0607L45.2586 42.0983L45.0434 42.1343L44.8272 42.1686L44.6097 42.2014L44.3914 42.2325L44.1719 42.262L43.9513 42.2899L43.7299 42.3162L43.5072 42.341L43.2836 42.3642L43.0587 42.3857L42.8329 42.4056L42.606 42.424L42.378 42.4408L42.149 42.456L41.9189 42.4696L41.6878 42.4815L41.4557 42.4919L41.2224 42.5007L40.988 42.5079L40.7526 42.5134L40.5161 42.5174L40.2787 42.5198L40.0401 42.5206L39.8016 42.5198L39.5642 42.5174L39.3277 42.5134L39.0923 42.5079L38.8579 42.5007L38.6248 42.4919L38.3925 42.4815L38.1614 42.4696L37.9313 42.456L37.7023 42.4408L37.4743 42.424L37.2474 42.4056L37.0216 42.3857L36.7969 42.3642L36.5731 42.341L36.3504 42.3162L36.129 42.2899L35.9086 42.262L35.6891 42.2325L35.4706 42.2014L35.2533 42.1686L35.037 42.1343L34.8218 42.0983L34.6077 42.0607L34.3945 42.0218L34.1826 41.981L33.9715 41.9387L33.7616 41.8948L33.5528 41.8493L33.345 41.8022L33.1383 41.7534L32.9325 41.7032L32.7282 41.6515L32.5256 41.5988L32.3247 41.5448L32.1255 41.4898L31.9281 41.4335L31.7324 41.3763L31.5382 41.3179L31.3459 41.2583L31.1552 41.1978L30.9663 41.136L30.779 41.073L30.5935 41.0089L30.4097 40.9438L30.2276 40.8774L30.0472 40.81L29.8686 40.7414L29.6915 40.6717L29.5162 40.6009L29.3427 40.5288L29.1708 40.4557L29.0007 40.3815L28.8322 40.3061L28.6657 40.2296L28.5005 40.1521L28.3372 40.0733L28.1755 39.9934L28.0157 39.9125L27.8575 39.8303L27.7009 39.7471L27.5461 39.6626L27.393 39.5771L27.2417 39.4905L26.9446 39.3141L26.6557 39.1342L26.3749 38.9504L26.1023 38.7629L25.8377 38.5717L25.5814 38.3766L25.333 38.1779L25.0928 37.9755L24.8607 37.7691L24.6368 37.5592L24.4209 37.3455L24.2131 37.128L24.0136 36.9068L23.822 36.6819L23.6388 36.4532L23.4634 36.2207L23.2976 35.9855L23.1424 35.7483L22.9979 35.5093L22.8642 35.2685L22.7411 35.0258L22.6288 34.7811L22.5271 34.5346L22.4362 34.2865L22.3559 34.0362L22.2864 33.784L22.2275 33.5301L22.1794 33.2743L22.1419 33.0165L22.1152 32.757L22.0991 32.4955V29.8838L22.1152 30.1453L22.1419 30.4048L22.1794 30.6626L22.2275 30.9184L22.2864 31.1724L22.3559 31.4245L22.4362 31.6748L22.5271 31.9231L22.6288 32.1696L22.7411 32.4143L22.8642 32.657L22.9979 32.8978L23.1424 33.1368L23.2976 33.3739L23.4634 33.6092L23.6388 33.8416L23.822 34.0704L24.0136 34.2953L24.2131 34.5163L24.4209 34.7338L24.6368 34.9475L24.8607 35.1574L25.0928 35.3638L25.333 35.5662L25.5814 35.7649L25.8377 35.96L26.1023 36.1512L26.3749 36.3387L26.6557 36.5225L26.9446 36.7024L27.2417 36.8788L27.393 36.9654L27.5461 37.0509L27.7009 37.1354L27.8575 37.2186L28.0157 37.3008L28.1755 37.3817L28.3372 37.4616L28.5005 37.5404L28.6657 37.6179L28.8322 37.6944L29.0007 37.7698L29.1708 37.844L29.3427 37.9171L29.5162 37.9892L29.6915 38.06L29.8686 38.1297L30.0472 38.1983L30.2276 38.2657L30.4097 38.3321L30.5935 38.3972L30.779 38.4613L30.9663 38.5243L31.1552 38.5861L31.3459 38.6468L31.5382 38.7063L31.7324 38.7647L31.9281 38.822L32.1255 38.8783L32.3247 38.9332L32.5256 38.9872L32.7282 39.0399L32.9325 39.0916L33.1383 39.1419L33.345 39.1907L33.5528 39.2378L33.7616 39.2833L33.9715 39.3272L34.1826 39.3694L34.3945 39.4102L34.6077 39.4492L34.8218 39.4867L35.037 39.5228L35.2533 39.557L35.4706 39.5898L35.6891 39.621L35.9086 39.6505L36.129 39.6784L36.3504 39.7047L36.5731 39.7295L36.7969 39.7526L37.0216 39.7742L37.2474 39.7941L37.4743 39.8125L37.7023 39.8293L37.9313 39.8445L38.1614 39.858L38.3925 39.8699L38.6248 39.8804L38.8579 39.8892L39.0923 39.8964L39.3277 39.9019L39.5642 39.9058L39.8016 39.9083L40.0401 39.9091L40.2787 39.9083L40.5161 39.9058L40.7526 39.9019L40.988 39.8964L41.2224 39.8892L41.4557 39.8804L41.6878 39.8699L41.9189 39.858L42.149 39.8445L42.378 39.8293L42.606 39.8125L42.8329 39.7941L43.0587 39.7742L43.2836 39.7526L43.5072 39.7295L43.7299 39.7047L43.9513 39.6784L44.1719 39.6505L44.3914 39.621L44.6097 39.5898L44.8272 39.557L45.0434 39.5228L45.2586 39.4867L45.4728 39.4492L45.686 39.4102L45.8979 39.3694L46.109 39.3272L46.3188 39.2833L46.5277 39.2378L46.7355 39.1907L46.9422 39.1419L47.1479 39.0916L47.3523 39.0399L47.5547 38.9872L47.7556 38.9332L47.9548 38.8783L48.1522 38.822L48.3481 38.7647L48.5421 38.7063L48.7345 38.6468L48.9251 38.5861L49.114 38.5243L49.3013 38.4613L49.4868 38.3972L49.6706 38.3321L49.8527 38.2657L50.0331 38.1983L50.2119 38.1297L50.3888 38.06L50.5641 37.9892L50.7377 37.9171L50.9096 37.844L51.0798 37.7698L51.2482 37.6944L51.4148 37.6179L51.5798 37.5404L51.7432 37.4616L51.9048 37.3817L52.0647 37.3008L52.223 37.2186L52.3795 37.1354L52.5344 37.0509L52.6874 36.9654L52.8388 36.8788L53.1358 36.7024L53.4247 36.5225L53.7055 36.3387L53.9782 36.1512L54.2428 35.96L54.4991 35.7649L54.7474 35.5662L54.9877 35.3638L55.2198 35.1574L55.4436 34.9475L55.6595 34.7338L55.8673 34.5163L56.0668 34.2953L56.2584 34.0704L56.4417 33.8416L56.617 33.6092L56.7829 33.3739L56.9381 33.1368L57.0825 32.8978L57.2163 32.657L57.3393 32.4143L57.4517 32.1696L57.5533 31.9231L57.6443 31.6748L57.7245 31.4245L57.7941 31.1724L57.8529 30.9184L57.9011 30.6626L57.9385 30.4048L57.9653 30.1453L57.9813 29.8838Z" fill="#64D370"/>
<path fill-rule="evenodd" clip-rule="evenodd" d="M22.0938 29.6206C22.0938 28.2113 22.5502 26.8818 23.4634 25.6322C24.1206 24.7327 24.9573 23.9161 25.9733 23.182C26.8658 23.7652 27.8191 24.2923 28.8332 24.7631L22.0948 29.7291L22.0938 29.6206ZM31.6012 25.8577C32.8435 26.2686 34.1328 26.5807 35.469 26.7939L24.5369 34.8502C24.1375 34.4558 23.7797 34.0421 23.4634 33.6093C23.1733 33.2122 22.9292 32.8072 22.7315 32.3941L31.6012 25.8577ZM39.2643 27.1312C39.4941 27.1363 39.7248 27.1389 39.9569 27.1389C41.7021 27.1389 43.3781 26.9931 44.9849 26.7019L29.6144 38.0291C28.7632 37.6857 27.9722 37.3022 27.2416 36.8789C27.0154 36.7479 26.796 36.6135 26.5836 36.4761L39.2643 27.1312V27.1312ZM54.06 23.1484C54.9549 23.7892 55.7122 24.4933 56.3317 25.261L36.6828 39.7411C35.3786 39.6061 34.1285 39.3896 32.9325 39.0917C32.8062 39.0602 32.6807 39.0279 32.5564 38.9953L54.06 23.1484ZM57.6053 27.4569C57.8595 28.156 57.9867 28.8771 57.9867 29.6206C57.9867 30.1201 57.9294 30.6095 57.8146 31.0889L46.8604 39.1616C44.9488 39.6136 42.9006 39.8606 40.7167 39.9026L57.6053 27.4569V27.4569Z" fill="#64D370"/>
<path d="M0 1.35449H18.6388V19.7806H12.9726V6.09259H5.66618V19.7806H0V1.35449Z" fill="#64D370"/>
<path d="M62.124 1.35449H72.2723C73.4255 1.35449 74.4793 1.51682 75.4335 1.84144C76.3878 2.16591 77.2029 2.61809 77.8789 3.1972C78.5547 3.77615 79.0818 4.46081 79.4594 5.25035C79.8371 6.0399 80.026 6.89112 80.026 7.80366C80.026 8.73367 79.8371 9.58911 79.4594 10.37C79.0818 11.1509 78.5547 11.8312 77.8789 12.4101C77.2029 12.9892 76.3878 13.4412 75.4335 13.7657C74.4793 14.0903 73.4253 14.2528 72.2723 14.2528H67.7902V19.7806H62.124V1.35449V1.35449ZM71.974 9.77785C72.6501 9.77785 73.2168 9.58047 73.674 9.18569C74.1312 8.79092 74.3599 8.33008 74.3599 7.80366C74.3599 7.27725 74.1312 6.81639 73.674 6.42162C73.2168 6.02685 72.6499 5.8293 71.974 5.8293H67.7902V9.77785H71.974V9.77785Z" fill="#64D370"/>
<path d="M92.468 11.752L90.5892 6.48753H90.4699L88.5912 11.752H92.468V11.752ZM87.3983 1.35449H93.6609L101.564 19.7806H95.4503L93.9591 15.8322H87.1L85.6089 19.7806H79.4954L87.3983 1.35449V1.35449Z" fill="#64D370"/>
<path d="M0 22.2246H18.6388V41.9563H12.9726V27.2984H5.66618V41.9563H0V22.2246Z" fill="#64D370"/>
<path d="M62.124 22.2246H78.0789V27.0165H67.7902V29.8354H75.6931V34.3454H67.7902V37.1643H78.3772V41.9563H62.124V22.2246Z" fill="#64D370"/>
<path d="M100.893 38.7148C100.237 39.429 99.4615 40.068 98.5668 40.6318C97.8112 41.1204 96.867 41.5572 95.7336 41.9425C94.6004 42.3277 93.2882 42.5203 91.7971 42.5203C90.1272 42.5203 88.5813 42.2479 87.1599 41.7029C85.7383 41.1579 84.5105 40.4156 83.4767 39.476C82.4429 38.5364 81.6328 37.4323 81.0462 36.1638C80.4597 34.8955 80.1665 33.5378 80.1665 32.0906C80.1665 30.6437 80.4597 29.286 81.0462 28.0175C81.6328 26.7491 82.4429 25.6451 83.4767 24.7054C84.5105 23.7658 85.7383 23.0236 87.1599 22.4786C88.5813 21.9335 90.1272 21.6611 91.7971 21.6611C93.2882 21.6611 94.5906 21.8583 95.7039 22.2531C96.8173 22.6477 97.7517 23.0893 98.5071 23.5779C99.3819 24.1417 100.127 24.7712 100.744 25.4664L97.3143 29.131C96.857 28.6612 96.3499 28.2383 95.7933 27.8625C95.2963 27.5431 94.7147 27.2517 94.0487 26.9886C93.3826 26.7256 92.6322 26.594 91.7971 26.594C90.982 26.594 90.2166 26.7349 89.5008 27.0168C88.7851 27.2987 88.1688 27.6886 87.6519 28.1866C87.135 28.6847 86.7274 29.2672 86.4291 29.9344C86.1309 30.6014 85.9818 31.3202 85.9818 32.0906C85.9818 32.8611 86.1309 33.5847 86.4291 34.2612C86.7274 34.9377 87.135 35.5203 87.6519 36.0088C88.1688 36.4974 88.7851 36.8827 89.5008 37.1646C90.2166 37.4465 90.982 37.5875 91.7971 37.5875C92.6322 37.5875 93.3877 37.4558 94.0637 37.1927C94.7395 36.9297 95.336 36.6384 95.853 36.3189C96.4493 35.9619 96.9862 35.539 97.4635 35.0505L100.893 38.7148V38.7148Z" fill="#64D370"/>
<path d="M107.901 27.0165H102.086V22.2246H119.383V27.0165H113.567V41.9563H107.901V27.0165Z" fill="#64D370"/>
<path d="M122.365 22.2246H128.031V28.1441H131.759C132.912 28.1441 133.966 28.318 134.92 28.6656C135.874 29.0132 136.689 29.4971 137.365 30.1173C138.042 30.7374 138.568 31.4703 138.946 32.316C139.324 33.1616 139.513 34.073 139.513 35.0502C139.513 36.0461 139.324 36.9622 138.946 37.7986C138.568 38.6348 138.042 39.363 137.365 39.983C136.689 40.6033 135.874 41.0871 134.92 41.4347C133.966 41.7824 132.912 41.9563 131.759 41.9563H122.365V22.2246ZM131.461 37.1643C132.137 37.1643 132.703 36.9529 133.161 36.5301C133.618 36.1073 133.846 35.6139 133.846 35.0502C133.846 34.4864 133.618 33.9931 133.161 33.5703C132.703 33.1474 132.137 32.936 131.461 32.936H128.031V37.1643H131.461V37.1643Z" fill="#64D370"/>
<path d="M40.0398 0.931641C42.5901 0.931641 44.96 1.20401 47.1482 1.74902C49.3362 2.29404 51.2339 3.03175 52.8396 3.96191C54.4451 4.89219 55.7048 5.98182 56.6179 7.23145C57.5308 8.48087 57.987 9.81063 57.9871 11.2197C57.9862 11.2956 57.9867 11.3688 57.9871 11.4443C57.9945 13.4137 57.5309 15.2721 56.6179 17.0186C55.7048 18.765 54.4453 20.2879 52.8396 21.5879C51.2339 22.8878 49.3362 23.918 47.1482 24.6797C44.96 25.4413 42.5901 25.8223 40.0398 25.8223C37.4897 25.8222 35.1205 25.4413 32.9324 24.6797C30.7441 23.918 28.8467 22.8878 27.241 21.5879C25.6354 20.288 24.3767 18.7648 23.4636 17.0186C22.5505 15.2721 22.0935 13.4139 22.0935 11.4443C22.0939 11.3686 22.0944 11.2956 22.0935 11.2197C22.0936 9.81058 22.5505 8.48091 23.4636 7.23145C24.3767 5.98196 25.6356 4.89211 27.241 3.96191C28.8467 3.03176 30.744 2.29404 32.9324 1.74902C35.1205 1.20404 37.4897 0.931671 40.0398 0.931641ZM40.0398 13.0254C37.12 13.0254 34.4072 13.3368 31.9021 13.9609C30.7603 14.2452 29.6878 14.5762 28.6843 14.9521C29.0126 15.1579 29.3647 15.354 29.74 15.541C31.0323 16.1849 32.5593 16.6949 34.3201 17.0723C36.0811 17.449 37.9876 17.6377 40.0398 17.6377C42.0922 17.6377 43.9996 17.4491 45.7605 17.0723C47.5214 16.6949 49.0484 16.1849 50.3406 15.541C50.716 15.354 51.0679 15.1578 51.3962 14.9521C50.3928 14.5762 49.3203 14.2452 48.1785 13.9609C45.6732 13.3368 42.9596 13.0254 40.0398 13.0254ZM40.0398 3.40137C37.9877 3.40139 36.0811 3.58987 34.3201 3.9668C32.5593 4.34395 31.0323 4.85418 29.74 5.49805C28.4479 6.14142 27.434 6.89601 26.699 7.76074C25.9645 8.62504 25.5974 9.54466 25.5974 10.5195C25.5974 11.4947 25.9643 12.4149 26.699 13.2793C26.962 13.5887 27.261 13.8838 27.5955 14.165C28.9007 13.6028 30.3361 13.1264 31.9021 12.7363C34.4072 12.1124 37.12 11.8008 40.0398 11.8008C42.9596 11.8008 45.6732 12.1124 48.1785 12.7363C49.7441 13.1264 51.1799 13.6028 52.4851 14.165C52.8197 13.8839 53.1184 13.5887 53.3816 13.2793C54.1161 12.4149 54.4832 11.4947 54.4832 10.5195C54.4831 9.54462 54.116 8.62508 53.3816 7.76074C52.6466 6.896 51.6329 6.14143 50.3406 5.49805C49.0484 4.85418 47.5214 4.34395 45.7605 3.9668C43.9996 3.58983 42.0921 3.40137 40.0398 3.40137Z" fill="#64D370"/>
</svg>
