<svg width="245" height="85" viewBox="0 0 245 85" fill="none" xmlns="http://www.w3.org/2000/svg">
<path d="M42.4999 7.08301C22.9393 7.08301 7.08325 22.9391 7.08325 42.4997C7.08325 62.0603 22.9393 77.9164 42.4999 77.9164C62.0606 77.9164 77.9166 62.0603 77.9166 42.4997C77.9166 22.9391 62.0606 7.08301 42.4999 7.08301ZM62.1739 50.178C63.8031 51.2653 64.2422 53.4611 63.1549 55.0903C62.4749 56.1139 61.3487 56.6664 60.2047 56.6664C59.5318 56.6664 58.8483 56.4716 58.2426 56.0714L47.6176 48.988L47.6141 48.9845C47.1041 49.1049 46.5764 49.197 46.0416 49.282V53.1318C46.0416 55.0903 44.4585 56.6734 42.4999 56.6734C25.6912 56.6734 21.2499 40.4526 21.2499 31.8747C21.2499 29.9161 22.833 28.333 24.7916 28.333C26.7466 28.333 28.3297 29.9126 28.3333 31.8641C28.3368 32.5228 28.5422 46.5655 38.9583 49.1757V31.8924C38.9583 29.9338 40.5414 28.3507 42.4999 28.3507C44.4585 28.3507 46.0416 29.9338 46.0416 31.8924V42.0782C54.2972 40.0772 56.6666 31.4178 56.7764 30.9999C57.2651 29.1157 59.1847 27.9753 61.0795 28.4499C62.9708 28.9351 64.1147 30.8441 63.6437 32.7318C62.7583 36.2734 60.0701 41.7241 55.1047 45.4641L62.1739 50.178Z" fill="#64D370"/>
<path d="M123.5 7.08008C143.063 7.08008 158.92 22.9375 158.92 42.5001C158.92 62.0627 143.063 77.9201 123.5 77.9201C103.937 77.9201 88.0801 62.0627 88.0801 42.5001C88.0801 22.9375 103.937 7.08008 123.5 7.08008ZM135.718 56.9376C136.37 54.9387 139.422 35.0172 139.799 31.0918C139.913 29.9029 139.538 29.1129 138.802 28.7602C137.911 28.3321 136.593 28.5461 135.064 29.0975C132.966 29.8536 106.152 41.2388 104.603 41.8979C103.134 42.5216 101.744 43.2023 101.744 44.1879C101.744 44.8809 102.156 45.2705 103.289 45.6756C104.469 46.096 107.439 46.9969 109.193 47.4804C110.883 47.9471 112.806 47.542 113.884 46.8721C115.027 46.1622 128.214 37.338 129.161 36.5649C130.107 35.7918 130.861 36.7821 130.088 37.5567C129.315 38.3298 120.263 47.1155 119.069 48.3321C117.62 49.8089 118.649 51.3397 119.621 51.9526C120.731 52.6518 128.716 58.0079 129.919 58.8672C131.122 59.7265 132.341 60.1161 133.458 60.1161C134.574 60.1161 135.162 58.6454 135.718 56.9376Z" fill="#64D370"/>
<path d="M205.417 7C185.856 7 170 22.856 170 42.4167C170 61.9773 185.856 77.8334 205.417 77.8334C224.977 77.8334 240.833 61.9773 240.833 42.4167C240.833 22.856 224.977 7 205.417 7ZM198.333 56.5834C190.51 56.5834 184.167 50.2402 184.167 42.4167C184.167 34.5931 190.51 28.25 198.333 28.25C202.024 28.25 205.353 29.695 207.875 32.0077L204.004 35.6698C202.466 34.3736 200.504 33.5625 198.333 33.5625C193.442 33.5625 189.479 37.5256 189.479 42.4167C189.479 47.3077 193.442 51.2708 198.333 51.2708C202.615 51.2708 206.189 48.2286 207.01 44.1875H198.333V38.875H212.001C212.295 40.0119 212.5 41.1877 212.5 42.4167C212.5 50.2402 206.157 56.5834 198.333 56.5834ZM226.667 42.4167V47.7292H223.125V42.4167H217.813V38.875H223.125V33.5625H226.667V38.875H231.979V42.4167H226.667Z" fill="#64D370"/>
</svg>
